<svg xmlns="http://www.w3.org/2000/svg" viewBox="0 0 400 280"><defs><linearGradient id="pack" x1="0" x2="1"><stop stop-color="#7c9c68"/><stop offset=".4" stop-color="#7c9c68"/><stop offset="1" stop-color="#f2a4a0"/></linearGradient><filter id="shadow" x="-30%" y="-30%" width="160%" height="180%"><feDropShadow dx="0" dy="10" stdDeviation="8" flood-color="#383324" flood-opacity=".12"/></filter></defs><title>Veggie sushi pack</title><ellipse cx="200" cy="244" rx="85" ry="12" fill="#292929" opacity=".06"/><g filter="url(#shadow)"><rect x="79" y="66" width="242" height="158" rx="22" fill="#405149"/><g transform="translate(109 106)"><ellipse rx="23" ry="25" fill="#304b39"/><ellipse rx="18" ry="20" fill="#efeee3"/><rect x="-9" y="-10" width="18" height="20" rx="4" fill="#d69873"/></g><g transform="translate(167 106)"><ellipse rx="23" ry="25" fill="#304b39"/><ellipse rx="18" ry="20" fill="#efeee3"/><rect x="-9" y="-10" width="18" height="20" rx="4" fill="#8ea75a"/></g><g transform="translate(225 106)"><ellipse rx="23" ry="25" fill="#304b39"/><ellipse rx="18" ry="20" fill="#efeee3"/><rect x="-9" y="-10" width="18" height="20" rx="4" fill="#d69873"/></g><g transform="translate(283 106)"><ellipse rx="23" ry="25" fill="#304b39"/><ellipse rx="18" ry="20" fill="#efeee3"/><rect x="-9" y="-10" width="18" height="20" rx="4" fill="#8ea75a"/></g><g transform="translate(109 177)"><ellipse rx="23" ry="25" fill="#304b39"/><ellipse rx="18" ry="20" fill="#efeee3"/><rect x="-9" y="-10" width="18" height="20" rx="4" fill="#d69873"/></g><g transform="translate(167 177)"><ellipse rx="23" ry="25" fill="#304b39"/><ellipse rx="18" ry="20" fill="#efeee3"/><rect x="-9" y="-10" width="18" height="20" rx="4" fill="#8ea75a"/></g><g transform="translate(225 177)"><ellipse rx="23" ry="25" fill="#304b39"/><ellipse rx="18" ry="20" fill="#efeee3"/><rect x="-9" y="-10" width="18" height="20" rx="4" fill="#d69873"/></g><g transform="translate(283 177)"><ellipse rx="23" ry="25" fill="#304b39"/><ellipse rx="18" ry="20" fill="#efeee3"/><rect x="-9" y="-10" width="18" height="20" rx="4" fill="#8ea75a"/></g></g></svg>
