<svg xmlns="http://www.w3.org/2000/svg" viewBox="0 0 400 280"><title>iced tea</title><defs><linearGradient id="porcelain"><stop stop-color="#d8ddd5"/><stop offset=".42" stop-color="#fff9ed"/><stop offset="1" stop-color="#e4dfd0"/></linearGradient><linearGradient id="cocoa"><stop stop-color="#b8492f"/><stop offset=".45" stop-color="#ec8055"/><stop offset="1" stop-color="#c9633e"/></linearGradient></defs><ellipse cx="201" cy="247" rx="82" ry="12" fill="#191919" opacity=".06"/><path d="M146 48h108l-12 191h-84z" fill="#cde2df" fill-opacity=".4" stroke="#b3cbc6" stroke-width="3"/><path d="M150 86h100l-10 147h-80z" fill="#ad6a27" opacity=".86"/><g fill="#e9f4ef" fill-opacity=".65" stroke="#c9dcd5" stroke-width="2"><rect x="163" y="84" width="26" height="27" rx="4" transform="rotate(-15 176 97)"/><rect x="203" y="73" width="26" height="27" rx="4" transform="rotate(13 216 86)"/><rect x="190" y="123" width="27" height="24" rx="4" transform="rotate(-8 203 135)"/></g><ellipse cx="199" cy="85" rx="48" ry="12" fill="#d79a44"/><path d="M220 137l9-113 29-9" fill="none" stroke="#557a67" stroke-width="8"/><circle cx="158" cy="87" r="29" fill="#e9cc58"/><circle cx="158" cy="87" r="23" fill="#f8e994"/><path d="M158 64v46m-23-23h46m-39-16l32 32m-32 0l32-32" stroke="#d4b341" stroke-width="2"/><path d="M169 116l3 97" stroke="#fff" opacity=".32" stroke-width="7"/></svg>
