<svg xmlns="http://www.w3.org/2000/svg" viewBox="0 0 400 280"><title>matcha latte</title><defs><linearGradient id="porcelain"><stop stop-color="#d8ddd5"/><stop offset=".42" stop-color="#fff9ed"/><stop offset="1" stop-color="#e4dfd0"/></linearGradient><linearGradient id="cocoa"><stop stop-color="#b8492f"/><stop offset=".45" stop-color="#ec8055"/><stop offset="1" stop-color="#c9633e"/></linearGradient></defs><ellipse cx="201" cy="247" rx="82" ry="12" fill="#191919" opacity=".06"/><path d="M146 48h108l-12 191h-84z" fill="#cde2df" fill-opacity=".4" stroke="#b3cbc6" stroke-width="3"/><path d="M151 101h98l-9 132h-80z" fill="#adc173"/><path d="M157 172q22 10 43-3t43 0l-3 64h-80z" fill="#f2e5bd"/><g fill="#e9f4ef" fill-opacity=".65" stroke="#c9dcd5" stroke-width="2"><rect x="163" y="84" width="26" height="27" rx="4" transform="rotate(-15 176 97)"/><rect x="203" y="73" width="26" height="27" rx="4" transform="rotate(13 216 86)"/><rect x="190" y="123" width="27" height="24" rx="4" transform="rotate(-8 203 135)"/></g><ellipse cx="200" cy="99" rx="48" ry="14" fill="#95af56"/><path d="M213 124l9-105h23" stroke="#506541" stroke-width="8" fill="none"/></svg>
