<svg xmlns="http://www.w3.org/2000/svg" viewBox="0 0 400 280"><defs><filter id="s" x="-50%" y="-50%" width="200%" height="220%"><feDropShadow dx="0" dy="10" stdDeviation="9" flood-color="#514629" flood-opacity=".13"/></filter><linearGradient id="glass" x1="0" x2="1"><stop stop-color="#ffffff" stop-opacity=".75"/><stop offset=".35" stop-color="#ffffff" stop-opacity=".13"/><stop offset="1" stop-color="#ffffff" stop-opacity=".45"/></linearGradient></defs><rect width="400" height="280" fill="#e0e8d4"/><ellipse cx="200" cy="232" rx="109" ry="16" fill="#65552a" opacity=".06"/><ellipse cx="200" cy="155" rx="138" ry="100" fill="#fffdfa" filter="url(#s)"/><ellipse cx="200" cy="155" rx="120" ry="83" fill="#f3f1e7"/><ellipse cx="200" cy="155" rx="109" ry="75" fill="#f9f8ee"/><g transform="rotate(-14 200 150)" filter="url(#s)"><path d="M127 83 Q196 60 267 93 Q287 117 263 205 Q202 229 133 201 Q106 155 127 83Z" fill="#976333"/><path d="M138 94 Q198 78 255 101 Q269 134 253 194 Q200 215 142 192 Q121 146 138 94Z" fill="#debd7d"/><path d="M143 111 Q198 86 250 113 L247 181 Q200 204 143 182Z" fill="#87a756"/><path d="M139 174 Q112 130 151 107" fill="none" stroke="#a6bd67" stroke-width="13" stroke-linecap="round"/><path d="M155 174 Q129 130 166 107" fill="none" stroke="#bbcb79" stroke-width="13" stroke-linecap="round"/><path d="M171 174 Q146 130 181 107" fill="none" stroke="#a6bd67" stroke-width="13" stroke-linecap="round"/><path d="M187 174 Q163 130 196 107" fill="none" stroke="#bbcb79" stroke-width="13" stroke-linecap="round"/><path d="M203 174 Q180 130 211 107" fill="none" stroke="#a6bd67" stroke-width="13" stroke-linecap="round"/><path d="M219 174 Q197 130 226 107" fill="none" stroke="#bbcb79" stroke-width="13" stroke-linecap="round"/><path d="M235 174 Q214 130 241 107" fill="none" stroke="#a6bd67" stroke-width="13" stroke-linecap="round"/><path d="M161 135 Q180 111 202 132 M195 171 Q218 144 237 161" fill="none" stroke="#bd6971" stroke-width="4" stroke-linecap="round"/><ellipse cx="208.1" cy="150.0" rx="2" ry="1" transform="rotate(0 200 150)" fill="#4e542a" opacity=".6"/><ellipse cx="189.7" cy="155.8" rx="2" ry="1" transform="rotate(27 200 150)" fill="#4e542a" opacity=".6"/><ellipse cx="201.6" cy="139.0" rx="2" ry="1" transform="rotate(54 200 150)" fill="#4e542a" opacity=".6"/><ellipse cx="213.0" cy="160.4" rx="2" ry="1" transform="rotate(81 200 150)" fill="#4e542a" opacity=".6"/><ellipse cx="176.2" cy="147.4" rx="2" ry="1" transform="rotate(108 200 150)" fill="#4e542a" opacity=".6"/><ellipse cx="222.6" cy="141.2" rx="2" ry="1" transform="rotate(135 200 150)" fill="#4e542a" opacity=".6"/><ellipse cx="192.5" cy="167.2" rx="2" ry="1" transform="rotate(162 200 150)" fill="#4e542a" opacity=".6"/><ellipse cx="185.6" cy="133.0" rx="2" ry="1" transform="rotate(9 200 150)" fill="#4e542a" opacity=".6"/><ellipse cx="231.2" cy="157.0" rx="2" ry="1" transform="rotate(36 200 150)" fill="#4e542a" opacity=".6"/><ellipse cx="167.5" cy="158.2" rx="2" ry="1" transform="rotate(63 200 150)" fill="#4e542a" opacity=".6"/><ellipse cx="215.7" cy="129.5" rx="2" ry="1" transform="rotate(90 200 150)" fill="#4e542a" opacity=".6"/><ellipse cx="211.6" cy="172.7" rx="2" ry="1" transform="rotate(117 200 150)" fill="#4e542a" opacity=".6"/><ellipse cx="165.1" cy="137.6" rx="2" ry="1" transform="rotate(144 200 150)" fill="#4e542a" opacity=".6"/><ellipse cx="240.9" cy="144.5" rx="2" ry="1" transform="rotate(171 200 150)" fill="#4e542a" opacity=".6"/><ellipse cx="175.0" cy="171.8" rx="2" ry="1" transform="rotate(18 200 150)" fill="#4e542a" opacity=".6"/><ellipse cx="194.2" cy="122.7" rx="2" ry="1" transform="rotate(45 200 150)" fill="#4e542a" opacity=".6"/><ellipse cx="235.4" cy="168.3" rx="2" ry="1" transform="rotate(72 200 150)" fill="#4e542a" opacity=".6"/><ellipse cx="152.4" cy="151.2" rx="2" ry="1" transform="rotate(99 200 150)" fill="#4e542a" opacity=".6"/><ellipse cx="234.8" cy="128.8" rx="2" ry="1" transform="rotate(126 200 150)" fill="#4e542a" opacity=".6"/><ellipse cx="197.7" cy="180.9" rx="2" ry="1" transform="rotate(153 200 150)" fill="#4e542a" opacity=".6"/><ellipse cx="166.9" cy="125.7" rx="2" ry="1" transform="rotate(0 200 150)" fill="#4e542a" opacity=".6"/><ellipse cx="252.4" cy="154.3" rx="2" ry="1" transform="rotate(27 200 150)" fill="#4e542a" opacity=".6"/><ellipse cx="155.6" cy="169.0" rx="2" ry="1" transform="rotate(54 200 150)" fill="#4e542a" opacity=".6"/><ellipse cx="212.1" cy="116.9" rx="2" ry="1" transform="rotate(81 200 150)" fill="#4e542a" opacity=".6"/><ellipse cx="228.1" cy="180.1" rx="2" ry="1" transform="rotate(108 200 150)" fill="#4e542a" opacity=".6"/></g><path d="M0 0 Q-22 -30 0 -49 Q22 -30 0 0 M0 -4 V-40" transform="translate(279 207) rotate(53) scale(0.72)" fill="#4f794e" stroke="#fff" stroke-opacity=".18" stroke-width="1"/></svg>
