<svg xmlns="http://www.w3.org/2000/svg" viewBox="0 0 400 280"><defs><filter id="s" x="-50%" y="-50%" width="200%" height="220%"><feDropShadow dx="0" dy="10" stdDeviation="9" flood-color="#514629" flood-opacity=".13"/></filter><linearGradient id="glass" x1="0" x2="1"><stop stop-color="#ffffff" stop-opacity=".75"/><stop offset=".35" stop-color="#ffffff" stop-opacity=".13"/><stop offset="1" stop-color="#ffffff" stop-opacity=".45"/></linearGradient></defs><rect width="400" height="280" fill="#eee3d0"/><ellipse cx="200" cy="232" rx="109" ry="16" fill="#65552a" opacity=".06"/><ellipse cx="200" cy="155" rx="138" ry="100" fill="#fffdfa" filter="url(#s)"/><ellipse cx="200" cy="155" rx="120" ry="83" fill="#f3f1e7"/><ellipse cx="200" cy="155" rx="109" ry="75" fill="#f9f8ee"/><g transform="rotate(8 200 160)" filter="url(#s)"><path d="M102 105 L283 146 L154 214Z" fill="#9e6739"/><path d="M103 95 L285 137 L154 204Z" fill="#d7a056"/><path d="M106 115 L155 194 L282 136 L155 180Z" fill="#557a3c"/><path d="M109 119 L155 186 L267 141 L159 177Z" fill="#eec878"/><path d="M111 121 L154 170 L273 133 L159 160Z" fill="#f1dcba"/><path d="M107 96 L279 134 L153 174Z" fill="#e8c893"/><path d="M113 99 L270 135 L157 167Z" fill="#f4dfb5"/><ellipse cx="175.4" cy="126.0" rx="2" ry="1" transform="rotate(0 170 126)" fill="#c18b49" opacity=".6"/><ellipse cx="163.1" cy="128.7" rx="2" ry="1" transform="rotate(27 170 126)" fill="#c18b49" opacity=".6"/><ellipse cx="171.1" cy="120.8" rx="2" ry="1" transform="rotate(54 170 126)" fill="#c18b49" opacity=".6"/><ellipse cx="178.7" cy="130.9" rx="2" ry="1" transform="rotate(81 170 126)" fill="#c18b49" opacity=".6"/><ellipse cx="154.0" cy="124.8" rx="2" ry="1" transform="rotate(108 170 126)" fill="#c18b49" opacity=".6"/><ellipse cx="185.2" cy="121.9" rx="2" ry="1" transform="rotate(135 170 126)" fill="#c18b49" opacity=".6"/><ellipse cx="164.9" cy="134.1" rx="2" ry="1" transform="rotate(162 170 126)" fill="#c18b49" opacity=".6"/><ellipse cx="160.3" cy="118.0" rx="2" ry="1" transform="rotate(9 170 126)" fill="#c18b49" opacity=".6"/><ellipse cx="191.0" cy="129.3" rx="2" ry="1" transform="rotate(36 170 126)" fill="#c18b49" opacity=".6"/><ellipse cx="148.2" cy="129.9" rx="2" ry="1" transform="rotate(63 170 126)" fill="#c18b49" opacity=".6"/><ellipse cx="180.5" cy="116.4" rx="2" ry="1" transform="rotate(90 170 126)" fill="#c18b49" opacity=".6"/><ellipse cx="177.8" cy="136.6" rx="2" ry="1" transform="rotate(117 170 126)" fill="#c18b49" opacity=".6"/><ellipse cx="146.5" cy="120.2" rx="2" ry="1" transform="rotate(144 170 126)" fill="#c18b49" opacity=".6"/><ellipse cx="197.5" cy="123.4" rx="2" ry="1" transform="rotate(171 170 126)" fill="#c18b49" opacity=".6"/><ellipse cx="153.2" cy="136.2" rx="2" ry="1" transform="rotate(18 170 126)" fill="#c18b49" opacity=".6"/><ellipse cx="166.1" cy="113.2" rx="2" ry="1" transform="rotate(45 170 126)" fill="#c18b49" opacity=".6"/><ellipse cx="193.8" cy="134.6" rx="2" ry="1" transform="rotate(72 170 126)" fill="#c18b49" opacity=".6"/><ellipse cx="137.9" cy="126.6" rx="2" ry="1" transform="rotate(99 170 126)" fill="#c18b49" opacity=".6"/><ellipse cx="193.4" cy="116.0" rx="2" ry="1" transform="rotate(126 170 126)" fill="#c18b49" opacity=".6"/><ellipse cx="168.4" cy="140.5" rx="2" ry="1" transform="rotate(153 170 126)" fill="#c18b49" opacity=".6"/><ellipse cx="147.8" cy="114.6" rx="2" ry="1" transform="rotate(0 170 126)" fill="#c18b49" opacity=".6"/><ellipse cx="205.2" cy="128.0" rx="2" ry="1" transform="rotate(27 170 126)" fill="#c18b49" opacity=".6"/><ellipse cx="140.1" cy="134.9" rx="2" ry="1" transform="rotate(54 170 126)" fill="#c18b49" opacity=".6"/><ellipse cx="178.2" cy="110.5" rx="2" ry="1" transform="rotate(81 170 126)" fill="#c18b49" opacity=".6"/><ellipse cx="188.9" cy="140.1" rx="2" ry="1" transform="rotate(108 170 126)" fill="#c18b49" opacity=".6"/><ellipse cx="133.1" cy="121.0" rx="2" ry="1" transform="rotate(135 170 126)" fill="#c18b49" opacity=".6"/><ellipse cx="205.8" cy="118.9" rx="2" ry="1" transform="rotate(162 170 126)" fill="#c18b49" opacity=".6"/><ellipse cx="154.5" cy="141.9" rx="2" ry="1" transform="rotate(9 170 126)" fill="#c18b49" opacity=".6"/><ellipse cx="156.1" cy="109.5" rx="2" ry="1" transform="rotate(36 170 126)" fill="#c18b49" opacity=".6"/><ellipse cx="206.9" cy="134.3" rx="2" ry="1" transform="rotate(63 170 126)" fill="#c18b49" opacity=".6"/><path d="M213 77 L309 98 L261 174Z" fill="#a7733c"/><path d="M213 69 L309 90 L259 163Z" fill="#eed3a3"/><path d="M218 78 L300 95 L259 153Z" fill="#f4e0b7"/><path d="M215 103 L257 166 L302 109" fill="none" stroke="#648448" stroke-width="10"/></g><path d="M0 0 Q-22 -30 0 -49 Q22 -30 0 0 M0 -4 V-40" transform="translate(113 209) rotate(-42) scale(0.6)" fill="#6e8e59" stroke="#fff" stroke-opacity=".18" stroke-width="1"/></svg>
