<svg xmlns="http://www.w3.org/2000/svg" viewBox="0 0 400 280"><defs><filter id="s" x="-50%" y="-50%" width="200%" height="220%"><feDropShadow dx="0" dy="10" stdDeviation="9" flood-color="#514629" flood-opacity=".13"/></filter><linearGradient id="glass" x1="0" x2="1"><stop stop-color="#ffffff" stop-opacity=".75"/><stop offset=".35" stop-color="#ffffff" stop-opacity=".13"/><stop offset="1" stop-color="#ffffff" stop-opacity=".45"/></linearGradient></defs><rect width="400" height="280" fill="#dfe8e7"/><ellipse cx="200" cy="232" rx="109" ry="16" fill="#65552a" opacity=".06"/><g filter="url(#s)"><path d="M181 63H219V78Q242 87 242 111V218Q200 238 158 218V111Q158 87 181 78Z" fill="#b6d0ca" stroke="#a5beba" stroke-width="2"/><path d="M166 118H234V215Q200 230 166 215Z" fill="#d5e3dc"/><rect x="178" y="47" width="44" height="24" rx="6" fill="#6e958b"/><path d="M185 51V64M194 51V64M203 51V64M212 51V64" stroke="#95b4a8" stroke-width="2"/><path d="M158 130Q200 144 242 130V183Q200 197 158 183Z" fill="#f3f2e7"/><path d="M184 162Q197 144 204 155T222 157" stroke="#618979" stroke-width="3" fill="none"/><circle cx="180" cy="160" r="3" fill="#618979"/><path d="M170 109V121M170 194V214" stroke="#fff" stroke-opacity=".7" stroke-width="5" stroke-linecap="round"/></g></svg>
